<?xml version="1.0" encoding="UTF-8"?>
<svg width="14px" height="14px" viewBox="0 0 14 14" version="1.1" xmlns="http://www.w3.org/2000/svg" xmlns:xlink="http://www.w3.org/1999/xlink">
    <!-- Generator: Sketch 54.1 (76490) - https://sketchapp.com -->
    <title>Fill 1</title>
    <desc>Created with Sketch.</desc>
    <g id="页面1" stroke="none" stroke-width="1" fill="none" fill-rule="evenodd">
        <g id="操作按钮" transform="translate(-80.000000, -430.000000)" fill="#D72324">
            <g id="养老机构管理-红" transform="translate(80.000000, 430.000000)">
                <path d="M11.4969679,9.19316435 C11.2454951,9.19316435 11.0095844,9.23528134 10.7908954,9.31487465 C10.7737517,9.30087465 10.7658828,9.28677716 10.7487197,9.27275766 L6.26251046,5.48690808 C5.95941144,5.23106685 5.52367364,5.14531198 5.12841283,5.23730641 L5.12064156,5.22954596 C5.11279219,5.23730641 5.09562901,5.23730641 5.08783821,5.24356546 C4.94406974,5.2794234 4.80198047,5.34341783 4.67543375,5.43541226 C1.91993305,6.83931198 0.0298158996,10.2227103 0.0298158996,13.0242702 C0.0298158996,13.4158412 -0.0372942817,13.6014485 0.0298158996,13.9789415 L8.66648815,13.9789415 L8.66648815,10.289805 L9.09453278,10.6532786 C9.16949233,10.7171755 9.24599442,10.7671504 9.33036541,10.8092674 C9.37254114,11.164883 9.72560669,11.4441226 10.1535732,11.4441226 C10.5565858,11.4441226 10.8924296,11.2023593 10.9690098,10.8810223 L10.9861534,10.8810223 L10.9861534,10.7390334 C10.9861534,10.5035292 11.2126918,10.3194429 11.4813278,10.3194429 C11.7594142,10.3194429 11.9764826,10.5113092 11.9764826,10.7406323 L11.9764826,13.9805404 L13.3042371,13.9805404 L13.3042371,10.7390334 C13.3198773,9.88423398 12.5045188,9.19316435 11.4969679,9.19316435 M13.9665914,1.99589694 C13.8994031,1.75407521 13.0668033,1.43431755 12.8075593,1.49669359 L12.6482287,1.53569081 L11.8578047,0.708988858 C11.7734533,0.623155989 11.353258,0.2254039 11.0345969,0.0537966574 C10.5800167,-0.187947075 7.06070572,0.506164345 6.60612552,1.1535766 C6.41246862,1.43431755 6.32964017,1.76191365 6.28746444,1.91790251 L6.00945607,3.1891922 L5.850106,3.22818942 C5.58926081,3.29056546 5.04406137,3.95351811 5.11126918,4.19535933 C5.17837936,4.43710306 5.44709344,4.58533148 5.71578801,4.51509749 L6.77484798,4.25773538 C7.02632078,5.50564624 8.21196653,6.45093872 9.63186332,6.45093872 C11.2361032,6.45093872 12.5388452,5.24980501 12.5388452,3.76638997 C12.5388452,3.45441226 12.4795063,3.15019499 12.3701227,2.86945404 L13.6135258,2.55747632 C13.8822399,2.48724234 14.0430934,2.23764067 13.9665914,1.99589694 M11.7656625,0.607615599 L11.8578047,0.708988858 C11.8922092,0.747986072 11.8749679,0.724607242 11.7656625,0.607615599" id="Fill-1"></path>
            </g>
        </g>
    </g>
</svg>