<?xml version="1.0" encoding="utf-8"?>
<svg version="1.1" xmlns:xlink="http://www.w3.org/1999/xlink" width="53px" height="50px" xmlns="http://www.w3.org/2000/svg">
  <g transform="matrix(1 0 0 1 -103 -2442 )">
    <path d="M 27.2223993049045 28.610709777832  C 31.8680915487196 26.2089069763184  35.0753967795139 21.1614728515625  35.0753967795139 15.3120637329102  C 35.0753967795139 7.13814312744141  28.8318132520616 0.51169841308594  21.1302931072049 0.51169841308594  C 13.4284492632378 0.51169841308594  7.18512472037761 7.13814319458008  7.18512472037761 15.3120637329102  C 7.18512472037761 21.1614728515625  10.3924299511719 26.2089069091797  15.037863210395 28.610709777832  C 6.95253580761719 31.2193785766602  0.967628924696181 38.8848251220703  0.302229314019097 48.1380764160156  C 0.244162994791667 48.2859948608398  0.212249185112847 48.4431883117676  0.212249185112847 48.6129544189453  C 0.212249185112847 49.2942862548828  0.732515449869792 49.8463868896484  1.37422246180556 49.8463868896484  C 2.01625317285156 49.8463868896484  2.53651943760851 49.2942861877441  2.53651943760851 48.6129544189453  L 2.59452097905816 48.6129544189453  C 3.19874708799913 38.2927390441895  11.2522253956163 30.112566418457  21.1299694080946 30.112566418457  C 31.0048650961372 30.112566418457  39.0613859350043 38.2927390441895  39.6654178371311 48.6129544189453  L 39.7234193785807 48.6129544189453  C 39.7234193785807 49.297583972168  40.2436209288194 49.8463868896484  40.8857163543837 49.8463868896484  C 41.5278764944661 49.8463868896484  42.0476896310764 49.2942861877441  42.0476896310764 48.6129544189453  C 42.0476896310764 48.4431882446289  42.0128627824436 48.289292578125  41.9575800731337 48.1413741333008  C 41.2925688128255 38.8848251220703  35.3077266444227 31.2193785766602  27.2223993049045 28.610709777832  Z M 9.50913598828125 15.3120637329102  C 9.50913598828125 8.50396715087891  14.7122517007378 2.97856335449219  21.1300341226128 2.97856335449219  C 27.5449682200521 2.97856335449219  32.7482782025825 8.50396715087891  32.7482782025825 15.3120637329102  C 32.7482782025825 22.1264123352051  27.5449682833116 27.648861895752  21.1300341226128 27.648861895752  C 14.7122517007378 27.648861895752  9.50913598828125 22.1264123352051  9.50913598828125 15.3120637329102  Z M 52.416763852105 48.1380764160156  C 51.7515583849826 38.8848251220703  45.7666515020616 31.2193785766602  37.6843019160156 28.610709777832  C 42.3270164063585 26.2089069763184  45.5344510661892 21.1614728515625  45.5344510661892 15.3120637329102  C 45.5344510661892 7.1409599975586  39.2937158631727 0.51169841308594  31.59206622602 0.51169841308594  C 30.9499708004557 0.51169841308594  30.3253534820964 0.573325402832034  29.7124530340712 0.662983325195315  C 30.7407508505859 1.34431516113282  31.7054152545573 2.1335799987793  32.5595788911675 3.03380089111328  C 38.5241593424479 3.55484760742188  43.2129643603516 8.85263693847657  43.2129643603516 15.3120637329102  C 43.2129643603516 21.7535589294434  38.5560731521267 27.0289509338379  32.6202993280165 27.583937121582  C 32.701734546875 27.7906656860352  32.7482134880642 28.0219901000977  32.7482134880642 28.2627268859863  C 32.7482134880642 28.3457893066406  32.7165585997179 28.4164164367676  32.7045828713108 28.490822265625  C 33.7330101801215 29.1226189208984  34.7237623158637 29.8166608459473  35.6536645857205 30.6058570007324  C 43.5906866190321 32.4899795532227  49.607507311632 39.7541294616699  50.1216885771484 48.6130231689453  L 50.1798196108941 48.6130231689453  C 50.1798196108941 49.297652722168  50.702869422309 49.8464556396484  51.3419223798828 49.8464556396484  C 51.986930844401 49.8464556396484  52.5040251488715 49.2943549377441  52.5040251488715 48.6130231689453  C 52.5067439810113 48.4431883117676  52.4719818468967 48.2859949279785  52.416763852105 48.1380764160156  Z " fill-rule="nonzero" fill="#d9001b" stroke="none" transform="matrix(1 0 0 1 103 2442 )" />
  </g>
</svg>