<?xml version="1.0" encoding="utf-8"?>
<svg version="1.1" xmlns:xlink="http://www.w3.org/1999/xlink" width="10px" height="10px" xmlns="http://www.w3.org/2000/svg">
  <g transform="matrix(1 0 0 1 -20 -20 )">
    <path d="M 25 20  C 27.8 20  30 22.2  30 25  C 30 27.8  27.8 30  25 30  C 22.2 30  20 27.8  20 25  C 20 22.2  22.2 20  25 20  Z " fill-rule="nonzero" fill="#ffff00" stroke="none" />
    <path d="M 25 20.5  C 27.52 20.5  29.5 22.48  29.5 25  C 29.5 27.52  27.52 29.5  25 29.5  C 22.48 29.5  20.5 27.52  20.5 25  C 20.5 22.48  22.48 20.5  25 20.5  Z " stroke-width="1" stroke="#ffff00" fill="none" />
  </g>
</svg>